<svg width="17" height="27" viewBox="0 0 17 27" fill="none" xmlns="http://www.w3.org/2000/svg">
<path d="M1.175 14.4583C1.35 14.8667 1.75834 15.1583 2.225 15.1583C3.625 15.2167 5.025 15.275 6.36667 15.3333C6.48334 15.3333 6.48334 15.3333 6.6 15.3917" stroke="#1D2737" stroke-width="0.243017" stroke-linecap="round" stroke-linejoin="round"/>
<path d="M0.474997 12.7083C0.0083307 13.4667 0.533331 14.4583 1.46666 14.5167C2.86666 14.575 4.26666 14.6333 5.60833 14.6917C6.30833 14.75 6.83333 15.3917 6.71666 16.0917C6.25 19.0083 5.78333 21.9833 5.31666 24.9C5.2 25.5417 6.075 25.8917 6.425 25.3083C9.51666 20.175 12.6083 15.1 15.7 9.96667C15.9333 9.55834 15.6417 9.03334 15.1167 9.03334C13.6 9.15001 12.0833 9.26667 10.5667 9.38334C10.1583 9.44167 9.86666 9.09167 9.925 8.68334C10.3333 6.11667 10.8 3.49167 11.2083 0.925006C11.2667 0.575006 10.975 0.225006 10.625 0.225006H8.05833C7.825 0.225006 7.65 0.283339 7.53333 0.516673C5.2 4.60001 2.86666 8.62501 0.474997 12.7083Z" fill="#1D2737" stroke="#1D2737" stroke-width="0.243017" stroke-linecap="round" stroke-linejoin="round"/>
<path d="M10.7417 9.38332C11.15 6.81665 11.6167 4.19165 12.025 1.62499C12.0833 1.27499 11.7917 0.924988 11.4417 0.924988H11.2667" stroke="#1D2737" stroke-width="0.243017" stroke-linecap="round" stroke-linejoin="round"/>
<path d="M6.07502 25.6C5.95835 26.2417 6.83335 26.5917 7.18335 26.0083C10.275 20.875 13.3667 15.8 16.4584 10.6667C16.6917 10.2583 16.4 9.73334 15.875 9.73334C15.8167 9.73334 15.875 9.73334 15.8167 9.73334" stroke="#1D2737" stroke-width="0.243017" stroke-linecap="round" stroke-linejoin="round"/>
</svg>
